<svg xmlns="http://www.w3.org/2000/svg" xmlns:xlink="http://www.w3.org/1999/xlink" xml:space="preserve" id="Layer_3" x="0" y="0" version="1.1" viewBox="0 0 64 64">
  <image xlink:href="AC6959636A7BE29B.png" width="251" height="251" overflow="visible" transform="matrix(.2426 0 0 .247 1.56 2)"/>
  <linearGradient id="SVGID_1_" x1="-276.877" x2="-276.877" y1="245.081" y2="258.31" gradientTransform="matrix(3.7796 0 0 -3.7796 1078.485 983.31)" gradientUnits="userSpaceOnUse">
    <stop offset="0" stop-color="#f8fcfc"/>
    <stop offset="1" stop-color="#fff"/>
  </linearGradient>
  <path fill="url(#SVGID_1_)" d="M17 4h30c7.2 0 13 5.8 13 13v30c0 7.2-5.8 13-13 13H17C9.8 60 4 54.1 4 47V17C4 9.8 9.8 4 17 4z"/>
  <image xlink:href="AC6959636A7BE29E.png" width="56" height="56" overflow="visible" transform="translate(2.133 5.116) scale(1.0667)"/>
  <path fill="#ffce42" d="M54.4 32c0 12.4-10 22.4-22.4 22.4h-1.1l9.8-17.1.3-.5c.8-1.4 1.2-3.1 1.2-4.8 0-5.6-4.6-10.2-10.2-10.2h20c1.5 3 2.4 6.5 2.4 10.2z"/>
  <linearGradient id="SVGID_00000020393764072369765040000001216794488934163617_" x1="41.327" x2="42.642" y1="20.359" y2="24.229" gradientUnits="userSpaceOnUse">
    <stop offset=".001" stop-color="#efb43c"/>
    <stop offset="1" stop-color="#efb43c" stop-opacity=".3"/>
  </linearGradient>
  <path fill="url(#SVGID_00000020393764072369765040000001216794488934163617_)" d="m38.5 25.4 13.4-3.6H31.7z"/>
  <path fill="#17a15e" d="M20.8 51.4c-10.7-6.2-14.4-19.9-8.2-30.6.2-.3.4-.6.6-1L23 36.9l.3.5c.9 1.4 2.1 2.6 3.6 3.5 4.9 2.8 11.1 1.1 14-3.7l-10 17.3c-3.5-.3-6.9-1.2-10.1-3.1z"/>
  <linearGradient id="SVGID_00000011004888958657323780000001311529220442743470_" x1="37.069" x2="33.533" y1="45.862" y2="45.056" gradientUnits="userSpaceOnUse">
    <stop offset=".002" stop-color="#168650"/>
    <stop offset="1" stop-color="#168650" stop-opacity=".3"/>
  </linearGradient>
  <path fill="url(#SVGID_00000011004888958657323780000001311529220442743470_)" d="m34.5 40.9-3.6 13.5L41 36.8z"/>
  <path fill="#dd5044" d="M20.8 12.6c10.7-6.2 24.4-2.5 30.6 8.2.2.3.4.7.5 1H31.6c-1.6.1-3.3.5-4.8 1.4-4.9 2.8-6.6 9.1-3.7 14l-10-17.3c1.9-3 4.5-5.5 7.7-7.3z"/>
  <linearGradient id="SVGID_00000170238480228437393160000002925287184345677726_" x1="17.697" x2="19.621" y1="29.542" y2="26.282" gradientUnits="userSpaceOnUse">
    <stop offset=".002" stop-color="#ba4234"/>
    <stop offset="1" stop-color="#ba4234" stop-opacity=".3"/>
  </linearGradient>
  <path fill="url(#SVGID_00000170238480228437393160000002925287184345677726_)" d="m23 29.7-9.8-9.9 10.1 17.6z"/>
  <circle cx="32" cy="32" r="10.2" fill="#fff"/>
  <circle cx="32" cy="32" r="8.1" fill="#4b8bf4"/>
</svg>
